<?xml version="1.0" encoding="utf-8"?>
<!-- Svg Vector Icons : http://www.onlinewebfonts.com/icon -->
<!DOCTYPE svg PUBLIC "-//W3C//DTD SVG 1.1//EN" "http://www.w3.org/Graphics/SVG/1.1/DTD/svg11.dtd">
<svg fill="#19364d" version="1.1" xmlns="http://www.w3.org/2000/svg" xmlns:xlink="http://www.w3.org/1999/xlink" x="0px" y="0px" viewBox="0 0 1000 1000" enable-background="new 0 0 1000 1000" xml:space="preserve">
<metadata> Svg Vector Icons : http://www.onlinewebfonts.com/icon </metadata>
<g><g transform="translate(0.000000,511.000000) scale(0.100000,-0.100000)"><path d="M4469.5,4981.8c-709-80-1503.4-357.2-2076.5-725l-143.9-93.3l-117.3,61.3c-437.1,234.6-940.9,74.6-1175.5-367.8c-61.3-119.9-72-170.6-72-365.2c0-191.9,10.7-247.9,72-370.5l69.3-141.3l-141.3-218.6c-597.1-919.6-877-2076.5-757-3156c157.3-1452.7,935.6-2750.9,2127.1-3553.2c2284.4-1538,5363.1-911.6,6858.5,1388.7c1450,2228.4,839.6,5240.5-1362.1,6719.9C6783.2,4813.8,5594.3,5109.7,4469.5,4981.8z M5509,4555.3c554.4-66.6,1018.3-207.9,1506-450.5c439.8-221.2,770.4-461.1,1146.2-839.6c378.5-378.5,618.4-709,837-1146.2c197.2-397.2,303.9-695.7,394.5-1130.2c64-298.5,72-394.5,72-869c0-397.2-10.7-597.1-45.3-778.3c-357.2-1889.9-1762-3294.6-3651.8-3651.8c-181.3-34.6-381.2-45.3-778.3-45.3c-474.5,0-570.4,8-869,72c-434.5,90.6-733,197.3-1130.2,394.5c-437.1,218.6-767.7,458.5-1146.2,837c-378.5,375.9-618.4,706.4-839.6,1146.2C292.5-485.3,377.8,1196.7,1230.8,2526.8c96,149.3,114.6,165.3,173.3,151.9c37.3-10.7,165.3-24,285.2-32c191.9-10.7,234.6-5.3,362.5,53.3c391.8,178.6,594.4,578.4,498.5,978.3c-40,167.9-45.3,162.6,279.9,346.5C3613.8,4464.6,4629.4,4667.2,5509,4555.3z M1899.9,3862.2c215.9-104,298.5-349.2,191.9-554.4c-80-154.6-173.3-221.3-335.8-237.2c-149.3-13.3-242.6,26.7-365.2,154.6c-72,74.6-80,101.3-80,253.2c0,202.6,53.3,290.5,226.6,381.2C1684,3931.5,1755.9,3934.2,1899.9,3862.2z"/><path d="M4552.1,3705C3158,3510.4,2035.8,2596.1,1582.7,1290c-149.3-434.5-189.3-685-189.3-1183.5c0-309.2,13.3-509.1,45.3-671.7c258.6-1295.4,1172.8-2345.7,2399-2753.5c453.1-151.9,671.7-186.6,1164.8-186.6s711.7,34.6,1164.9,186.6c319.9,106.6,527.8,207.9,829,402.5l221.2,143.9l165.3-56c442.5-151.9,951.6,80,1156.9,522.4c61.3,133.3,72,197.3,74.6,386.5c0,194.6-10.7,250.6-74.6,386.5c-42.7,88-98.6,183.9-125.3,213.2c-50.7,53.3-50.7,58.7,26.7,293.2c138.6,437.2,173.3,653.1,173.3,1132.9c0,493.1-34.6,711.7-186.6,1164.9c-298.6,895.6-954.3,1650-1815.2,2081.8c-226.6,114.6-663.7,261.2-922.3,311.9C5429.1,3715.6,4792,3739.6,4552.1,3705z M5445.1,3275.8c455.8-64,1023.6-287.9,1396.7-551.8C7961.3,1932.4,8457.1,503.6,8065.3-813.2c-56-191.9-61.3-197.2-128-178.6c-37.3,10.7-170.6,18.7-295.9,18.7c-194.6,0-247.9-10.6-378.5-74.6c-197.2-95.9-370.5-269.2-466.5-466.5c-66.6-133.3-74.6-181.3-74.6-405.2c0-221.2,8-271.9,74.6-402.5c40-82.6,72-154.6,72-162.6c0-26.7-242.6-170.6-466.5-282.5c-1231.5-610.4-2750.8-338.5-3707.8,663.7C1753.3-1117,1537.4,325,2150.4,1545.9C2758.2,2758.7,4099,3462.4,5445.1,3275.8z M7905.4-1455.5c202.6-101.3,282.5-231.9,282.5-466.5c0-157.3-10.7-194.6-80-293.2c-239.9-341.2-719.7-306.5-906.3,64c-85.3,175.9-85.3,298.5,8,474.5c58.7,114.6,101.3,157.3,215.9,215.9C7604.1-1367.6,7724.1-1367.6,7905.4-1455.5z"/><path d="M4696,2436.2c-967.6-149.3-1711.3-815.7-1967.2-1756.6c-82.6-303.9-82.6-842.3,0-1148.8c69.3-247.9,175.9-495.8,309.2-701c85.3-130.6,90.6-151.9,66.6-253.2c-58.6-250.6,66.6-647.7,253.2-805c311.9-263.9,735.7-285.2,1074.2-56c125.3,85.3,135.9,88,290.5,64c221.2-32,629.1-5.3,853,56c863.7,234.6,1476.7,853,1708.6,1727.3c34.7,135.9,48,279.9,48,543.8c0,263.9-13.3,407.8-48,543.8C7055,1516.5,6434,2148.3,5589,2374.9C5391.8,2428.2,4874.6,2462.8,4696,2436.2z M5549,1945.7c333.2-104,538.4-229.2,799.7-493.1c266.6-263.9,389.2-466.5,498.5-813c88-287.9,88-778.3,0-1066.2c-109.3-346.5-231.9-549.1-498.5-813c-383.8-386.5-775.7-554.4-1290.1-557.1l-277.2-2.7l5.3,173.3c21.3,655.7-661.1,1082.2-1247.5,781l-167.9-85.3L3270-711.9c-261.2,557.1-242.6,1172.8,48,1737.9c133.3,258.6,509.1,631.7,765,765c359.8,183.9,589.1,234.6,986.3,223.9C5274.5,2007,5418.4,1985.7,5549,1945.7z M4115-1226.3c199.9-88,287.9-311.9,207.9-519.8c-112-298.6-458.5-373.2-682.4-149.3c-175.9,173.3-173.3,413.2,2.7,589.1C3784.4-1165,3928.4-1141,4115-1226.3z"/><path d="M4800,935.5c-130.6-32-357.2-167.9-426.5-250.6c-37.3-45.3-98.6-141.3-138.6-215.9c-58.7-114.6-69.3-170.6-69.3-362.5c-2.7-207.9,5.3-239.9,87.9-394.5c159.9-295.9,410.5-445.1,749-445.1c482.5,0,839.6,357.2,839.6,839.6c0,335.9-149.3,589.1-437.1,743.7C5231.8,940.8,4967.9,980.8,4800,935.5z M5170.5,495.6c274.6-114.6,341.2-471.8,128-685c-173.3-173.3-418.5-173.3-591.8,0C4376.2,138.5,4741.4,676.9,5170.5,495.6z"/></g></g>
</svg>
